<svg xmlns="http://www.w3.org/2000/svg" width="15" height="19" viewBox="0 0 15 19">
    <g fill="none" fill-rule="evenodd">
        <g fill="#041E42">
            <g>
                <path d="M7.5 0C11.438 0 15 3.019 15 7.688c0 3.112-2.503 6.796-7.5 11.062C2.503 14.484 0 10.8 0 7.687 0 3.02 3.563 0 7.5 0zm5.625 7.688c0-3.404-2.484-5.813-5.625-5.813-3.14 0-5.625 2.41-5.625 5.813 0 2.193 1.828 5.1 5.625 8.568 3.797-3.469 5.625-6.375 5.625-8.569zM7.5 9.374c-1.031 0-1.875-.844-1.875-1.875 0-1.031.844-1.875 1.875-1.875 1.031 0 1.875.844 1.875 1.875 0 1.031-.844 1.875-1.875 1.875z" transform="translate(-80 -337) translate(80 337)"/>
            </g>
        </g>
    </g>
</svg>
