<svg xmlns="http://www.w3.org/2000/svg" width="15" height="19" viewBox="0 0 15 19">
    <g fill="none" fill-rule="evenodd">
        <g fill="#FFF">
            <path d="M1278.5 13c3.938 0 7.5 3.019 7.5 7.688 0 3.112-2.503 6.796-7.5 11.062-4.997-4.266-7.5-7.95-7.5-11.063 0-4.668 3.563-7.687 7.5-7.687zm5.625 7.688c0-3.404-2.484-5.813-5.625-5.813-3.14 0-5.625 2.41-5.625 5.813 0 2.193 1.828 5.1 5.625 8.568 3.797-3.468 5.625-6.375 5.625-8.569zm-5.625 1.687c-1.031 0-1.875-.844-1.875-1.875 0-1.031.844-1.875 1.875-1.875 1.031 0 1.875.844 1.875 1.875 0 1.031-.844 1.875-1.875 1.875z" transform="translate(-1271 -13)"/>
        </g>
    </g>
</svg>
