<svg xmlns="http://www.w3.org/2000/svg" width="14" height="14" viewBox="0 0 14 14">
    <g fill="none" fill-rule="evenodd">
        <g fill="#041E42" fill-rule="nonzero">
            <g>
                <g>
                    <g>
                        <path d="M1.145 9.944L.661 13.33l3.387-.484c.267-.049.508-.17.702-.339l6.242-6.218-2.71-2.734L7.75 3 1.508 9.266c-.193.17-.314.411-.363.678zM12.468 4.839l.17-.17c.604-.604.604-1.572 0-2.177l-.17-.194-.75-.725-.17-.17c-.29-.29-.701-.435-1.088-.435-.387 0-.799.145-1.089.435l-.17.17-.386.362 3.266 3.267.387-.363z" transform="translate(-323 -602) translate(57 584) translate(258 10) translate(8 8)"/>
                    </g>
                </g>
            </g>
        </g>
    </g>
</svg>
