<svg xmlns="http://www.w3.org/2000/svg" width="18" height="22" viewBox="0 0 18 22">
    <g fill="none" fill-rule="evenodd">
        <g fill="#666665">
            <path d="M30.8 391c4.62 0 8.8 3.542 8.8 9.02 0 3.652-2.937 7.975-8.8 12.98-5.863-5.005-8.8-9.328-8.8-12.98 0-5.478 4.18-9.02 8.8-9.02zm6.6 9.02c0-3.993-2.915-6.82-6.6-6.82-3.685 0-6.6 2.827-6.6 6.82 0 2.574 2.145 5.984 6.6 10.054 4.455-4.07 6.6-7.48 6.6-10.054zM30.8 402c-1.21 0-2.2-.99-2.2-2.2 0-1.21.99-2.2 2.2-2.2 1.21 0 2.2.99 2.2 2.2 0 1.21-.99 2.2-2.2 2.2z" transform="translate(-22 -391)"/>
        </g>
    </g>
</svg>
