<svg xmlns="http://www.w3.org/2000/svg" width="15" height="16" viewBox="0 0 15 16">
    <g fill="none" fill-rule="evenodd">
        <g fill="#FFF">
            <g>
                <g>
                    <g>
                        <path d="M6.589 0C4.9 0 3.532 1.343 3.532 3v1.2H2.188c-.626 0-1.15.464-1.216 1.074l-.965 9c-.076.709.49 1.326 1.216 1.326h11.954c.726 0 1.292-.617 1.216-1.326l-.965-9c-.066-.61-.59-1.074-1.216-1.074h-1.344V3c0-1.657-1.369-3-3.057-3H6.59zm3.056 5.4v1.2c0 .331.274.6.611.6.338 0 .612-.269.612-.6V5.4h1.344l.965 9H1.223l.965-9h1.344v1.2c0 .331.274.6.612.6.337 0 .611-.269.611-.6V5.4h4.89zm0-1.2V3c0-.994-.82-1.8-1.834-1.8H6.59c-1.013 0-1.834.806-1.834 1.8v1.2h4.89z" transform="translate(-1926 -981) translate(530 930) translate(1396 51)"/>
                    </g>
                </g>
            </g>
        </g>
    </g>
</svg>
