<svg xmlns="http://www.w3.org/2000/svg" width="16" height="16" viewBox="0 0 16 16">
    <defs>
        <filter id="sn2j0vpcia">
            <feColorMatrix in="SourceGraphic" values="0 0 0 0 1.000000 0 0 0 0 1.000000 0 0 0 0 1.000000 0 0 0 1.000000 0"/>
        </filter>
    </defs>
    <g fill="none" fill-rule="evenodd">
        <g>
            <g>
                <g filter="url(#sn2j0vpcia)" transform="translate(-1549 -1035) translate(530 930) translate(1019 105)">
                    <path fill="#2A2C2C" d="M13.016 7.395c0 2.98-2.461 5.395-5.497 5.395s-5.497-2.415-5.497-5.395C2.022 4.415 4.483 2 7.52 2s5.497 2.415 5.497 5.395zm-1.348 5.187c-1.142.881-2.583 1.407-4.149 1.407-3.71 0-6.718-2.952-6.718-6.594C.8 3.753 3.809.801 7.519.801s6.719 2.952 6.719 6.594c0 1.673-.635 3.2-1.681 4.363l2.465 2.42c.238.233.238.613 0 .847-.239.234-.625.234-.864 0l-2.49-2.444z"/>
                </g>
            </g>
        </g>
    </g>
</svg>
