<svg xmlns="http://www.w3.org/2000/svg" width="20" height="15" viewBox="0 0 20 15">
    <g fill="none" fill-rule="evenodd">
        <g fill="#2A2C2C">
            <g>
                <path d="M2.143 0C.968 0 0 1.016 0 2.25v10.5C0 13.984.968 15 2.143 15h15.714C19.032 15 20 13.984 20 12.75V2.25C20 1.016 19.032 0 17.857 0H2.143zm.119 1.5H17.73l-7.247 7.023c-.34.33-.644.33-.983 0L2.261 1.5zm-.833 1.227l7.098 6.898c.819.795 2.112.794 2.931 0l7.113-6.898V12.75c0 .428-.306.75-.714.75H2.143c-.408 0-.714-.322-.714-.75V2.727z" transform="translate(-170 -236) translate(170 236)"/>
            </g>
        </g>
    </g>
</svg>
