<svg xmlns="http://www.w3.org/2000/svg" xmlns:xlink="http://www.w3.org/1999/xlink" width="20" height="20" viewBox="0 0 20 20">
    <defs>
        <filter id="l05g6mxysa">
            <feColorMatrix in="SourceGraphic" values="0 0 0 0 0.164706 0 0 0 0 0.172549 0 0 0 0 0.172549 0 0 0 1.000000 0"/>
        </filter>
        <path id="l37sx55hb" d="M0 0L19.889 0 19.889 19.889 0 19.889z"/>
    </defs>
    <g fill="none" fill-rule="evenodd">
        <g>
            <g filter="url(#l05g6mxysa)" transform="translate(-31 -474) translate(31 474)">
                <mask id="uk4z9unzkc" fill="#fff">
                    <use xlink:href="#l37sx55hb"/>
                </mask>
                <path fill="#020202" d="M13.266 6.682L9.945 8.14 2.13 4.71l3.315-1.456 7.82 3.428zM6.963 2.585l2.982-1.31 7.814 3.435-2.974 1.304-7.822-3.429zm3.593 6.616L14 7.694v1.805c-.002.156.064.314.181.433.234.238.626.238.86 0 .118-.119.183-.277.181-.43v-2.35l3.445-1.513v9.142l-8.111 3.561V9.201zm-1.223 0v9.135l-8.11-3.555V5.646L9.332 9.2zm10.192-5.053L10.192.051C10.096.01 9.99-.008 9.887.003c-.065.006-.128.022-.19.048L.364 4.148.34 4.16c-.23.147-.34.338-.34.585v10.438c.002.236.148.458.363.554l9.291 4.075c.095.042.176.074.283.077h.01c.076 0 .162-.03.259-.066l9.32-4.087c.214-.096.36-.318.362-.555V4.771c-.003-.287-.142-.526-.364-.623z" mask="url(#uk4z9unzkc)"/>
            </g>
        </g>
    </g>
</svg>
