<svg xmlns="http://www.w3.org/2000/svg" width="24" height="16" viewBox="0 0 24 16">
    <g fill="none" fill-rule="evenodd">
        <g fill="#FFF">
            <g>
                <path d="M15.293 14.293c-.39.39-.39 1.024 0 1.414.39.39 1.024.39 1.414 0l7-7C23.895 8.52 24 8.265 24 8c0-.265-.105-.52-.293-.707l-7-7c-.39-.39-1.024-.39-1.414 0-.39.39-.39 1.024 0 1.414L20.586 7H1c-.552 0-1 .448-1 1s.448 1 1 1h19.586l-5.293 5.293z" transform="translate(-1137 -1912) translate(1137 1912)"/>
            </g>
        </g>
    </g>
</svg>
