<svg xmlns="http://www.w3.org/2000/svg" width="27" height="18" viewBox="0 0 27 18">
    <defs>
        <filter id="vtwsf0z87a">
            <feColorMatrix in="SourceGraphic" values="0 0 0 0 0.419608 0 0 0 0 0.419608 0 0 0 0 0.419608 0 0 0 1.000000 0"/>
        </filter>
    </defs>
    <g fill="none" fill-rule="evenodd">
        <g>
            <g>
                <g>
                    <g fill="#000" filter="url(#vtwsf0z87a)" transform="translate(-825 -155) translate(397 154) translate(323 1) translate(105.415)">
                        <path d="M1.336 7.194h23.328V4.419H1.336v2.775zm1.387-5.858h20.554c.765 0 1.387.622 1.387 1.387v.36H1.336v-.36c0-.765.622-1.387 1.387-1.387zm20.554 15.107H2.723c-.765 0-1.387-.623-1.387-1.388V8.53h23.328v6.525c0 .765-.622 1.388-1.387 1.388zm0-16.443H2.723C1.222 0 0 1.222 0 2.723v12.332c0 1.502 1.222 2.724 2.723 2.724h20.554c1.501 0 2.723-1.222 2.723-2.724V2.723C26 1.222 24.778 0 23.277 0z"/>
                        <path d="M21.221 12.332h-5.138c-.368 0-.668.3-.668.668 0 .368.3.668.668.668h5.138c.369 0 .668-.3.668-.668 0-.368-.3-.668-.668-.668"/>
                    </g>
                </g>
            </g>
        </g>
    </g>
</svg>
