<svg xmlns="http://www.w3.org/2000/svg" width="20" height="22" viewBox="0 0 20 22">
    <defs>
        <filter id="fyrymgjh7a">
            <feColorMatrix in="SourceGraphic" values="0 0 0 0 0.164706 0 0 0 0 0.172549 0 0 0 0 0.172549 0 0 0 1.000000 0"/>
        </filter>
    </defs>
    <g fill="none" fill-rule="evenodd">
        <g>
            <g>
                <g filter="url(#fyrymgjh7a)" transform="translate(-52 -138) translate(0 138) translate(52)">
                    <g>
                        <path fill="#2A2C2C" d="M8.785 0C6.535 0 4.71 1.79 4.71 4v1.6H2.917c-.834 0-1.534.618-1.621 1.433l-1.287 12c-.101.944.653 1.767 1.621 1.767h15.94c.968 0 1.722-.823 1.62-1.768l-1.286-12c-.087-.814-.787-1.432-1.621-1.432H14.49V4c0-2.21-1.824-4-4.075-4h-1.63zm4.075 7.2v1.6c0 .442.365.8.815.8.45 0 .815-.358.815-.8V7.2h1.793l1.287 12H1.63l1.287-12H4.71v1.6c0 .442.365.8.815.8.45 0 .815-.358.815-.8V7.2h6.52zm0-1.6V4c0-1.325-1.094-2.4-2.445-2.4h-1.63C7.435 1.6 6.34 2.675 6.34 4v1.6h6.52z"/>
                    </g>
                </g>
            </g>
        </g>
    </g>
</svg>
