<svg xmlns="http://www.w3.org/2000/svg" width="14" height="14" viewBox="0 0 14 14">
    <g fill="none" fill-rule="evenodd">
        <g fill="#2A2C2C" fill-rule="nonzero">
            <g>
                <g>
                    <g>
                        <g>
                            <path d="M13.733 2.722L11.164.17c-.226-.227-.598-.227-.824 0L1.343 9.167c-.178.178-.275.388-.307.646L.018 13.141c-.049.21 0 .404.161.566.114.113.259.177.42.177h.114l3.376-1.001c.242-.033.484-.146.646-.307l8.998-8.998c.113-.113.177-.258.177-.42-.016-.161-.08-.323-.177-.436zm-3.118 2.294l-6.688 6.671L2.2 9.96 8.886 3.27l1.729 1.745z" transform="translate(-343.000000, -400.000000) translate(0.000000, 211.000000) translate(0.000000, 161.000000) translate(335.000000, 20.000000) translate(8.052072, 8.008077)"/>
                        </g>
                    </g>
                </g>
            </g>
        </g>
    </g>
</svg>
