<svg xmlns="http://www.w3.org/2000/svg" width="14" height="11" viewBox="0 0 14 11">
    <g fill="none" fill-rule="evenodd">
        <g fill="#1D1D1B">
            <g>
                <path d="M8.92 9.316c-.227.228-.227.597 0 .825.229.228.598.228.826 0l4.083-4.083c.11-.11.171-.258.171-.413 0-.154-.061-.303-.17-.412L9.745 1.15c-.228-.228-.597-.228-.825 0-.228.227-.228.597 0 .824l3.087 3.088H.583c-.322 0-.583.261-.583.583 0 .323.261.584.583.584h11.425L8.921 9.316z" transform="translate(-20 -93) matrix(-1 0 0 1 34 93)"/>
            </g>
        </g>
    </g>
</svg>
