<svg xmlns="http://www.w3.org/2000/svg" width="13" height="17" viewBox="0 0 13 17">
    <g fill="none" fill-rule="evenodd">
        <g fill="#000" fill-rule="nonzero">
            <g>
                <g>
                    <path d="M9.53 15.935H2.237C1.003 15.935 0 14.93 0 13.698V8.556C0 7.323 1.003 6.32 2.236 6.32h7.295c1.233 0 2.236 1.003 2.236 2.236v5.143c0 1.233-1.003 2.236-2.236 2.236zM2.237 6.963c-.878 0-1.593.714-1.593 1.593v5.143c0 .878.715 1.593 1.593 1.593h7.295c.878 0 1.593-.715 1.593-1.593V8.556c0-.879-.715-1.593-1.593-1.593H2.236z" transform="translate(-275 -826) translate(20 246) translate(255.117 580.176)"/>
                    <path d="M5.144 12.626L3.352 10.835 3.807 10.38 5.144 11.717 7.96 8.901 8.415 9.355zM3.879 6.807h-.643V4.693c0-1.46 1.187-2.647 2.647-2.647 1.46 0 2.648 1.187 2.648 2.647v2.102h-.643V4.693c0-1.105-.9-2.005-2.005-2.005s-2.004.9-2.004 2.005v2.114z" transform="translate(-275 -826) translate(20 246) translate(255.117 580.176)"/>
                    <path d="M10.577 6.807h-.643V4.693c0-2.233-1.817-4.05-4.05-4.05-2.234 0-4.051 1.817-4.051 4.05v2.114H1.19V4.693C1.19 2.105 3.296 0 5.883 0c2.588 0 4.694 2.105 4.694 4.693v2.114z" transform="translate(-275 -826) translate(20 246) translate(255.117 580.176)"/>
                </g>
            </g>
        </g>
    </g>
</svg>
