<svg xmlns="http://www.w3.org/2000/svg" width="18" height="18" viewBox="0 0 18 18">
    <g fill="none" fill-rule="evenodd">
        <g fill="#2A2C2C">
            <g>
                <g>
                    <path d="M1.731.297C1.335-.099.693-.099.297.297c-.396.396-.396 1.038 0 1.434l7.366 7.367-7.17 7.17c-.397.397-.397 1.039 0 1.435.395.396 1.037.396 1.434 0l7.17-7.171 6.976 6.976c.396.396 1.039.396 1.435 0 .396-.396.396-1.038 0-1.434l-6.976-6.976 7.171-7.172c.396-.396.396-1.038 0-1.434-.396-.396-1.038-.396-1.434 0L9.098 7.663 1.73.297z" transform="translate(-20 -365) translate(0 352) translate(20 13)"/>
                </g>
            </g>
        </g>
    </g>
</svg>
