<svg xmlns="http://www.w3.org/2000/svg" width="24" height="24" viewBox="0 0 24 24">
    <g fill="none" fill-rule="evenodd">
        <g>
            <g>
                <g>
                    <path d="M0 0H24V24H0z" transform="translate(-1046 -83) translate(302 83) translate(744)"/>
                    <path fill="#00c7b1" d="M4.649 8.269l-.015.024c.004-.009.009-.017.015-.024zm8.736 12.795l-.009-.011-.007-.011v.002c-.007-.009-.012-.018-.016-.027l-.01-.014.005.002c-.007-.019-.01-.038-.009-.055l.014-.015.005.002c.008.063.046.099.083.118l-.03.03-.026-.021zm-8.636-3.647l-.008.02-.005-.005.013-.015zm.01.016l-.008.001.005-.01.002.009zm-1.673-6.755l-.001.001h-.01l.009-.01.002.009zm-.22 2.64l-.006-.012-.002-.018-.006-.03.12-.013.004.002.018-.002.003.008.001.002v.004L3 13.26l.003.013-.013.01-.006.014-.086.07c-.01-.017-.026-.04-.031-.05zm10.595 7.712l-.004.01c-.047-.02-.078-.058-.09-.1l.116.041-.022.049zm7.466-7.535l-.035-.141.01-.004.071.135-.046.01zM4.751 6.545l.02-.034c.005-.01.01-.02.013-.03l.024-.025c.024-.026.05-.05.075-.075L6.48 4.783l.02-.015.016-.01.005-.004.04-.01.015-.001.014-.002.031.01.044.009.014.007c.084.08.168.164.248.246.066.067.131.133.198.198.408.4 1 .529 1.507.33.13-.051.254-.11.373-.165.126-.06.245-.115.369-.162.045-.018.09-.034.135-.05.215-.078.437-.158.634-.32.33-.269.512-.682.512-1.165v-.527-.028l.004-.014.007-.024c.013-.015.023-.031.03-.045l.006-.006.005-.005.01-.007.011-.008.012-.006.042-.009.03-.01.047.001H13.226l.033.01.032.018.03.028c.004.01.01.02.016.03l.007.01.005.027.002.02.003.019v.426c0 .134 0 .273.022.418.042.257.162.503.348.713.206.234.467.346.695.423.239.084.464.176.707.291.248.12.52.228.844.201.313-.025.595-.14.836-.345.122-.102.231-.215.337-.325.051-.053.102-.106.155-.158l.013-.014.016-.012.035-.02.006-.003c.01-.004.02-.006.03-.008h.03l.032.01c.006 0 .01.002.016.003.014.008.028.015.042.02v.001l.025.024c.077.075.153.152.23.23l1.256 1.256.19.19.016.018.002.002.008.013c.002.012.004.024.008.037.003.015.007.028.012.04l-.001.011-.002.006c-.006.018-.01.036-.013.053l-.01.016-.008.013-.013.013c-.041.043-.083.084-.125.125l-.095.095c-.242.242-.494.493-.584.874-.072.297-.048.602.069.881.046.11.094.216.142.319.062.135.121.264.174.399l.046.125c.079.215.16.438.327.639.164.199.4.353.662.434.237.077.486.07.726.065l.175-.003h.153l.002.001.02.006.014.004.007.004.033.02.02.018.012.015.01.02c.003.016.008.03.013.043V13.208c-.006.017-.01.033-.014.049l-.014.024-.004.007-.01.01-.013.013-.006.004-.01.008-.016.008-.036.008-.023.008h-.01l-.062.002-.188-.003c-.166-.004-.337-.008-.508.013-.553.072-.998.43-1.195.959l-.009.023-.001.005c-.094.274-.186.505-.29.727-.117.247-.238.504-.233.822.006.3.105.593.28.825.083.11.175.202.268.293l.275.275.012.012.017.02c.007.01.014.018.022.026l.008.015.002.003.007.028c0 .006 0 .011.002.018l.002.014v.006l-.01.05-.021.034-.002.003-.022.025-.005.005-.07.07-1.564 1.564-.015.015-.01.012-.018.016-.008.008-.007.005c-.006.004-.013.009-.022.013l-.02.008-.002.001-.03.009h-.04c-.012-.004-.025-.007-.037-.012-.011-.007-.026-.016-.044-.024-.094-.075-.18-.168-.27-.267-.052-.055-.105-.113-.16-.167-.398-.392-.977-.529-1.477-.348-.14.05-.272.114-.4.174-.11.052-.213.101-.319.143-.063.024-.127.047-.191.069-.191.066-.388.135-.563.264-.377.282-.584.71-.584 1.208v.547l-.003.02-.006.02v.001l-.019.038-.007.016-.028.028-.031.019h-.002l-.028.008h-.017l-.029.004h-2.404l-.007-.002-.028-.008-.017-.01-.002-.001-.038-.034-.003-.002-.01-.013-.01-.02c-.003-.016-.008-.03-.013-.043v-.499c.001-.09.002-.184-.01-.278-.033-.287-.143-.546-.327-.77-.16-.196-.385-.344-.688-.45-.265-.094-.485-.182-.692-.278-.246-.117-.526-.249-.86-.23-.296.015-.567.112-.785.278-.15.114-.283.25-.41.381-.053.055-.105.109-.16.162l-.042.042-.037.022-.007.001-.03.007h-.036c-.012-.002-.024-.006-.037-.01l-.023-.014-.015-.013-.025-.02c-.208-.204-.417-.414-.62-.618l-.31-.312-.744-.744-.012-.013c-.01-.019-.02-.035-.029-.048l-.005-.019c0-.021-.002-.041-.004-.059l.009-.03v-.001l.006-.015.004-.007c.003-.007.007-.013.012-.02.036-.04.078-.08.122-.123l.069-.067.04-.04c.236-.235.48-.478.578-.841.079-.282.066-.595-.033-.856-.052-.14-.114-.27-.173-.397-.056-.118-.108-.23-.152-.345l-.059-.161c-.065-.188-.133-.382-.262-.556-.18-.238-.414-.41-.695-.512-.245-.086-.505-.082-.756-.077l-.16.003h-.172l-.021-.006-.016-.006-.017-.006-.007-.004-.004-.002-.031-.031-.018-.03-.006-.01c-.003-.02-.007-.037-.012-.054-.004-.066-.002-.136 0-.209l.002-.128v-.795c0-.14 0-.279-.002-.419-.001-.27-.002-.551.002-.825l.012-.072.002-.005.016-.03.004-.005.02-.018.01-.01.029-.017.045-.013h.059l.187.002c.188.004.382.008.574-.02.277-.037.53-.152.75-.342.19-.163.327-.382.43-.687.09-.26.182-.484.288-.708.114-.236.234-.516.213-.844-.023-.313-.135-.595-.333-.839-.05-.06-.105-.115-.158-.168l-.068-.068-.09-.088-.178-.18-.018-.018-.015-.015-.002-.003-.015-.032-.015-.044v-.037l.005-.018zm1.848-1.96l.035.001c-.008.022-.012.049-.002.08-.007.012-.015.023-.024.034l-.009-.115v.123l-.012-.01-.01-.034c.009-.028.005-.054-.004-.077l.026-.002zm4.165-1.737l.004.02h-.003l.003.02.002-.006.012.072-.008-.015.001.01-.018-.036.001-.004-.03-.054.036-.007zm6.76 1.754c-.004.036-.018.068-.039.094l.004-.045.02-.019-.016-.02.001-.016.03.006zm-.05.126l.001-.02c.014-.01.025-.021.035-.033l.027-.066.05.027-.068.095-.005.002-.015.022-.003-.001-.013-.013h-.001V4.74l-.009-.012zm1.8 1.904l.003-.006.017.004.01.016-.03-.014zM6.706 4.607l-.064.111-.001.004-.002.003v-.01l.002.002.017-.12.048.01zM4.73 6.503l-.106-.04c.007-.014.016-.034.021-.048l.026.02.034.027.01.008h.001l.02.016.03.023-.002.003v.002H4.76l-.021-.007v-.002l-.012-.004v.002zm17.282 4.315c-.003-.094-.011-.19-.035-.287-.12-.507-.592-.863-1.147-.866h-.57l-.034-.003-.033-.002c-.023-.005-.047-.012-.072-.019l-.036-.01-.05-.027-.022-.014-.021-.014-.026-.024-.015-.013c-.009-.011-.023-.03-.042-.048-.017-.026-.033-.054-.05-.084l-.004-.01-.001-.003-.006-.018-.016-.046c-.046-.134-.099-.274-.163-.428-.058-.14-.116-.275-.173-.399l-.046-.097-.046-.098-.003-.004c-.012-.035-.02-.062-.026-.091l-.004-.023-.001-.01-.002-.034c0-.021 0-.044.002-.071V8.07c.007-.035.016-.073.03-.109l.006-.01.022-.036.028-.046.004-.007.008-.007.014-.015.244-.243.18-.18c.404-.408.469-1.028.154-1.475-.085-.121-.188-.222-.288-.32l-.07-.069-1.159-1.158-.101-.102c-.068-.068-.136-.137-.205-.204-.431-.416-1.103-.44-1.563-.055-.117.098-.223.209-.326.316-.052.054-.103.108-.157.16l-.034.035-.007.007-.007.005-.008.005-.028.019-.017.01-.034.016-.025.01-.013.004-.048.014-.008.002-.023.003-.015.002c-.03.002-.058.002-.088 0l-.01-.001-.021-.003-.035-.01-.048-.013-.011-.003-.023-.011-.04-.02c-.035-.018-.071-.034-.107-.051l-.107-.05c-.2-.092-.406-.169-.605-.243l-.213-.08-.044-.025-.033-.018-.022-.014-.006-.004-.001-.001-.043-.043-.027-.027-.002-.003c-.018-.026-.034-.054-.048-.082l-.013-.043-.013-.037c-.005-.017-.008-.034-.011-.052-.002-.04-.002-.081-.002-.121V3.27c0-.143 0-.29-.045-.44-.083-.289-.277-.537-.534-.68-.246-.139-.501-.15-.741-.15h-2.17c-.436 0-.822.21-1.031.561-.17.283-.166.601-.162.882V3.784l-.001.018-.002.01-.002.01c-.01.039-.02.076-.03.106v.001l-.005.008c-.006.013-.013.027-.024.045-.01.018-.02.032-.028.043l-.005.005-.016.017-.018.018-.027.025-.004.003c-.03.021-.065.04-.1.06l-.013.003-.084.029c-.162.057-.291.107-.404.154-.13.053-.27.114-.44.193-.023.01-.044.021-.066.032-.033.016-.065.033-.098.047l-.005.003H8.29l-.018.006-.08.02h-.001-.001l-.06.001h-.033l-.027-.005-.015-.002c-.026-.006-.06-.015-.092-.026-.007-.005-.015-.01-.023-.013l-.023-.012c-.02-.011-.035-.02-.048-.03-.015-.017-.03-.03-.044-.042l-.155-.156-.07-.07c-.21-.213-.447-.454-.802-.516-.395-.066-.767.061-1.076.37L4.186 5.677c-.183.183-.397.442-.43.832-.024.3.086.612.304.858.046.05.094.097.14.142l.065.063.248.248.024.025.015.016.006.007.014.025.033.054.004.007.006.011.009.03.02.08v.035c.001.009.002.017.001.025l-.001.017c-.002.016-.002.03-.002.044-.007.03-.017.063-.028.095l-.005.016v.002l-.016.032-.02.041-.027.056-.082.177c-.055.127-.114.263-.168.403l-.078.206c-.007.022-.014.044-.023.064l-.032.093-.002.006c-.009.015-.015.03-.02.041l-.002.003-.021.036-.007.01-.012.016-.022.027-.011.01-.036.035c-.027.018-.053.034-.08.049-.021.007-.042.016-.06.025l-.027.007-.036.008-.023.002-.023.002c-.02.002-.04.001-.06 0-.075-.001-.147-.001-.223-.004-.217-.007-.463-.014-.681.054-.479.146-.806.591-.814 1.109-.005.298-.003.602-.002.895l.002.447v.862c-.002.16-.004.324.045.49.145.496.607.829 1.15.829h.587c.013.002.026.002.034.002h.003l.028.008.072.02.007.004.014.006.013.007.045.026.027.02.004.003.066.064.014.023c.017.028.033.054.047.08v.003c.01.034.022.07.035.103l.01.028c.055.156.106.285.157.404.066.16.122.287.176.399l.032.064c.016.032.032.062.045.092l.013.042c.008.027.014.054.02.08v.077l-.002.024-.002.009-.005.023c-.006.022-.011.044-.019.064l-.008.02-.007.018-.014.023c-.004.008-.016.026-.026.04l-.012.019-.024.024-.425.427c-.426.434-.458 1.089-.076 1.557.065.08.137.15.208.22l.091.09.57.57c.099.098.196.197.294.296.192.194.39.396.592.59.447.428 1.13.44 1.59.028.098-.089.19-.183.277-.275.06-.061.118-.122.178-.18l.013-.013.023-.022.04-.027.002-.001c.015-.01.03-.018.047-.027l.007-.005.007-.004.06-.02c.017-.005.034-.008.046-.01l.015-.003h.098c.034.006.07.015.117.03l.005.003.12.057.195.09c.153.068.301.13.441.184.06.024.124.047.186.069.028.009.056.018.082.029.023.012.05.023.085.032l.053.031.028.017.007.006.03.029.026.026.004.005.002.003.003.004.009.013.029.047.006.013.018.034c.009.026.016.054.023.082l.003.019c0 .007.002.015.004.022v.015c.002.023.001.046 0 .07v.437c0 .167.004.318.056.477.097.294.3.536.556.662.24.123.472.133.729.133h2.156c.46-.003.863-.237 1.052-.612.142-.279.138-.568.134-.848l-.001-.133v-.18c0-.011 0-.023.002-.036l.004-.02.004-.023.007-.026.006-.02.008-.02.006-.016c.016-.03.03-.056.044-.077l.018-.022.017-.018.042-.04.01-.008.003-.002.004-.003.013-.007.04-.023.002-.001.027-.013c.015-.005.035-.012.057-.022l.085-.028c.126-.045.261-.097.425-.164.124-.051.256-.11.416-.184l.034-.017.039-.018-.032-.084.037.082.016-.007.043-.02c.027-.01.058-.018.092-.024.015 0 .028 0 .044-.002h.08l.03.006.026.006.056.018.002.001.056.03c.02.019.04.033.058.043.041.038.082.08.124.123l.068.07.081.081c.056.056.11.112.166.165.194.19.432.302.707.336.347.042.687-.092.985-.39l1.542-1.541c.27-.27.403-.543.42-.858.015-.302-.107-.61-.334-.85l-.137-.136-.14-.14-.152-.152-.03-.031c-.01-.018-.022-.033-.031-.045-.01-.015-.018-.031-.03-.052l-.001-.002c-.007-.02-.014-.04-.02-.062l-.003-.011c-.004-.013-.007-.027-.01-.044v-.005c-.002-.032-.002-.06-.001-.087.006-.022.01-.047.012-.078l.002-.007c.005-.015.009-.029.012-.044l.003-.007c.012-.027.026-.053.043-.084l.083-.176c.109-.24.206-.48.29-.717.015-.027.028-.056.04-.088l.006-.019c.007-.014.014-.028.024-.044.01-.018.022-.035.034-.053l.023-.024.016-.016v-.001c.008-.007.019-.016.03-.028l.014-.01.01-.007c.02-.012.042-.025.064-.036l.018-.008.037-.013c.023-.005.047-.01.07-.018h.001c.091-.008.197-.003.305 0 .21.006.429.012.64-.037.5-.12.857-.581.865-1.12.002-.106.001-.212 0-.317v-1.787-.09l.002-.095.348.078-.35-.162z" transform="translate(-1046 -83) translate(302 83) translate(744)"/>
                    <path fill="#00c7b1" d="M8.667 11.577l.003-.011c.007-.024.015-.058.014-.095.015-.09.033-.18.056-.271.042-.17.098-.338.168-.512l.003-.007.015-.034.012-.025c.019-.043.04-.085.062-.127.05-.099.091-.171.134-.24.04-.068.086-.138.142-.216l.043-.06.02-.025c.004-.007.014-.02.021-.028l.055-.066c.113-.134.236-.262.369-.381l.07-.063.103-.085.037-.028.051-.036c.04-.029.079-.055.117-.08.148-.098.309-.186.482-.266.01-.005.019-.01.028-.013l.036-.017.005-.002.06-.023.051-.02c.107-.038.195-.066.279-.09.086-.024.176-.044.26-.064.047-.01.092-.018.135-.024l.025-.003c.026 0 .053-.005.08-.012.184-.02.374-.027.565-.02.103.004.19.011.272.021l.04.005.02.003.012.003c.055.009.108.017.162.028.186.038.365.09.534.153.04.015.08.03.12.047l.008.003.034.016.025.011c.086.039.17.082.254.13.064.036.132.078.217.132l.058.038.055.038.026.018.03.02c.013.012.027.023.042.032.134.107.262.224.38.347.051.052.105.113.171.192.018.021.036.043.053.066l.003.003.021.029.051.07c.104.148.198.305.279.467.02.038.039.077.059.122l.01.02c.004.012.01.023.013.03l.001.004.003.007c.033.079.065.166.1.271.057.18.1.359.126.53l.006.035c.001.013.004.03.008.048v.002h-.001l.013.134.001.15.001.149c0 .082-.003.172-.01.273l-.014.153-.004.032v.004l-.005.031-.003.017c-.032.188-.076.37-.132.545-.027.087-.06.173-.09.249l-.002.004-.004.008c-.007.02-.017.038-.029.063-.019.042-.04.085-.062.126-.083.161-.178.318-.281.465l-.037.05-.027.037-.037.049-.01.01-.009.01c-.073.086-.134.154-.19.212-.063.065-.123.122-.184.175l-.052.046-.048.043-.025.02c-.01.01-.022.019-.027.023l-.02.016-.015.012-.005.004c-.136.102-.283.196-.436.28-.09.048-.162.085-.23.115l-.051.023-.039.015c-.041.017-.082.033-.124.048-.164.06-.34.108-.521.147-.043.008-.086.017-.129.023l-.037.006c-.01 0-.023.003-.036.005l-.017.003c-.088.01-.18.016-.285.02-.202.008-.396 0-.575-.023l-.037-.005-.104-.017-.063-.012c-.08-.016-.183-.039-.287-.07-.093-.027-.173-.053-.247-.08l-.123-.047c-.012-.006-.024-.01-.035-.014l-.001-.001-.041-.018c-.169-.078-.33-.166-.479-.265-.043-.027-.086-.056-.13-.089l-.06-.045-.023-.017c-.01-.01-.02-.018-.032-.027l-.028-.024c-.036-.03-.07-.06-.107-.094-.13-.115-.255-.246-.376-.391l-.051-.065-.034-.046-.032-.043c-.064-.091-.114-.168-.158-.24-.05-.085-.089-.157-.124-.227l-.018-.034-.048-.1-.009-.02-.013-.029-.01-.02v-.002c-.078-.198-.132-.365-.169-.527-.016-.074-.032-.148-.045-.222l-.013-.079-.005-.036c-.007-.054-.01-.109-.015-.164-.014-.197-.013-.392.002-.583.002-.038.007-.078.01-.116zm1.521 4.387c.582.262 1.202.396 1.828.396.293 0 .586-.03.878-.088 1.74-.348 3.143-1.81 3.414-3.555.039-.243.059-.482.059-.71v-.005c-.006-.91-.291-1.803-.804-2.513-.523-.726-1.24-1.272-2.075-1.58-1.697-.625-3.683-.085-4.83 1.315-.577.705-.92 1.554-.993 2.455-.073.896.147 1.815.62 2.589.453.745 1.13 1.347 1.903 1.696z" transform="translate(-1046 -83) translate(302 83) translate(744)"/>
                </g>
            </g>
        </g>
    </g>
</svg>
