<svg width="44" height="29" xmlns="http://www.w3.org/2000/svg">
    <g fill-rule="nonzero" fill="none">
        <path d="M3.882 0A3.887 3.887 0 0 0 0 3.882v1.985L.863 9.03 0 11.647v12.941a3.887 3.887 0 0 0 3.882 3.883H22l.863-11.935L22 0H3.882z" fill="#7ED7F5"/>
        <path d="M40.118 0H22v28.47h18.118A3.887 3.887 0 0 0 44 24.589v-12.94l-.863-2.6L44 5.867V3.882A3.887 3.887 0 0 0 40.118 0z" fill="#7ED7F5"/>
        <path fill="#ECF1FD" d="M4.573 16.22h12.94v2.588H4.574zM4.573 21.396h9.058v2.588H4.573z"/>
        <path fill="#5698E1" d="M31.663 21.396h2.588v2.588h-2.588zM26.486 21.396h2.589v2.588h-2.589zM36.84 21.396h2.587v2.588H36.84z"/>
        <path fill="#477898" d="M0 5.867v5.78h22l.863-2.89L22 5.867z"/>
        <path fill="#477898" d="M22 5.867h22v5.78H22z"/>
    </g>
</svg>
