<svg xmlns="http://www.w3.org/2000/svg" width="120" height="36" viewBox="0 0 120 36">
    <defs>
        <filter id="vizrhwcega" color-interpolation-filters="auto">
            <feColorMatrix in="SourceGraphic" values="0 0 0 0 1.000000 0 0 0 0 1.000000 0 0 0 0 1.000000 0 0 0 1.000000 0"/>
        </filter>
    </defs>
    <g fill="none" fill-rule="evenodd">
        <g>
            <g filter="url(#vizrhwcega)" transform="translate(-80.000000, -15.000000) translate(80.000000, 15.000000)">
                <path fill="#2A2A2A" fill-rule="nonzero" d="M60.387 9.714c-.23.601-3.773 10.454-3.913 10.731-.515 1.198-1.212 1.753-2.097 1.753s-1.587-.601-2.097-1.753c-.14-.277-3.684-10.13-3.913-10.731v-.046h-4.213l.047.092c2.706 7.401 4.105 11.148 4.475 11.976.749 1.748 1.68 2.992 2.752 3.728.87.606 1.918.914 2.982.879 1.063.029 2.108-.28 2.981-.88 1.072-.735 1.957-1.933 2.753-3.727.37-.875 1.769-4.561 4.47-11.976l.047-.092h-4.227l-.047.046zm56.861 1.707c-1.551-1.328-3.54-2.05-5.593-2.031-2.263.014-4.427.914-6.017 2.504-1.59 1.59-2.477 3.739-2.465 5.975-.008 2.019.716 3.975 2.041 5.512 1.325 1.537 3.164 2.555 5.182 2.87 1.457.234 2.95.09 4.334-.417 1.16-.449 2.21-1.14 3.075-2.026l-2.747-2.211c-.915.796-2.09 1.238-3.31 1.244-.217.006-.436-.01-.65-.046-1.007-.187-1.934-.67-2.659-1.388-.46-.591-.836-1.242-1.118-1.933v-.046h12.54c.135-.69.79-5.089-2.613-8.012v.005zm-9.974 5.176c.198-.86.615-1.657 1.212-2.313.426-.447.938-.803 1.507-1.049.569-.246 1.182-.375 1.802-.38.218-.008.437.007.65.046.983.181 1.882.667 2.566 1.388.576.67.991 1.46 1.212 2.312v.051h-8.95v-.055zm-10.157.319c-1.353-.504-4.475-1.147-5.27-1.425-.392-.135-.755-.338-1.073-.601-.113-.111-.199-.248-.25-.397-.05-.15-.065-.31-.042-.466.023-.157.082-.306.173-.435.092-.13.213-.237.353-.312.724-.358 1.533-.518 2.34-.462 1.775-.015 3.501.57 4.892 1.66l2.19-2.627c-.993-.883-2.168-1.543-3.444-1.934-1.103-.333-2.25-.505-3.403-.508-1.405 0-4.288.23-6.015 2.442-.65.782-1.91 3.7.655 5.759 1.536 1.244 3.773 1.748 5.032 2.026.885.185 2.471.55 2.982 1.059.099.074.177.172.226.285.05.112.068.236.055.358-.14 1.29-1.957 1.475-3.076 1.475-.98-.01-1.954-.166-2.888-.462-1.02-.342-1.958-.89-2.752-1.61l-2.05 2.623s1.025 1.244 3.496 2.21c1.26.51 4.939 1.338 8.06 0 .937-.336 1.74-.96 2.294-1.78.553-.819.827-1.791.782-2.775.178-2.674-2.43-3.78-3.267-4.103zm-18.04 1.244c.019.569-.079 1.135-.287 1.665-.208.53-.523 1.013-.925 1.42-.78.768-1.835 1.2-2.935 1.2s-2.156-.432-2.935-1.2c-.402-.407-.717-.89-.925-1.42-.208-.53-.306-1.096-.287-1.665V9.714h-3.965v8.261c0 2.581.702 4.515 2.144 6.013.763.789 1.687 1.408 2.71 1.818 1.023.41 2.122.6 3.225.56h.094c1.09.031 2.176-.161 3.187-.566 1.01-.404 1.926-1.012 2.687-1.784 1.489-1.522 2.144-3.455 2.144-6.013v-8.29h-3.965v8.447h.033zM17.996 0C14.432.005 10.95 1.06 7.99 3.03c-2.961 1.97-5.267 4.768-6.627 8.04-1.36 3.272-1.711 6.87-1.01 10.34.7 3.47 2.42 6.657 4.944 9.156 2.524 2.5 5.737 4.199 9.234 4.884 3.497.686 7.12.326 10.41-1.033 3.291-1.36 6.102-3.657 8.078-6.603 1.975-2.946 3.027-6.407 3.021-9.947 0-2.35-.467-4.678-1.374-6.849-.907-2.17-2.237-4.142-3.913-5.802-1.677-1.66-3.666-2.975-5.855-3.87C22.708.451 20.363-.007 17.997 0zm1.533 26.894c-.415.427-.982.675-1.58.69-.476.006-.944-.131-1.342-.394-.397-.262-.705-.638-.883-1.077l-7.42-15.614h4.872l6.679 13.953c.116.264.193.543.228.828.03.293-.003.589-.1.867-.095.279-.25.534-.454.747zm7.326-12.987v.047l-2.413 4.879c-.027.042-.065.076-.11.1-.043.024-.093.037-.144.037-.05 0-.1-.013-.144-.037-.044-.024-.082-.058-.11-.1l-2.412-4.88c-.21-.448-.305-.942-.275-1.436.03-.494.182-.972.445-1.393.262-.42.626-.77 1.058-1.017.432-.246.92-.382 1.417-.394.785.006 1.537.318 2.092.87.555.55.87 1.296.875 2.076.008.432-.088.86-.28 1.248z"/>
            </g>
        </g>
    </g>
</svg>
