<svg width="24" height="16" viewBox="0 0 24 16" fill="none" xmlns="http://www.w3.org/2000/svg">
<path fill-rule="evenodd" clip-rule="evenodd" d="M8.707 14.293C9.097 14.683 9.097 15.317 8.707 15.707C8.317 16.097 7.683 16.097 7.293 15.707L0.292999 8.707C0.104999 8.52 0 8.265 0 8C0 7.735 0.104999 7.48 0.292999 7.293L7.293 0.293C7.683 -0.0970003 8.317 -0.0970003 8.707 0.293C9.097 0.683 9.097 1.317 8.707 1.707L3.414 7H23C23.552 7 24 7.448 24 8C24 8.552 23.552 9 23 9H3.414L8.707 14.293Z" fill="white"/>
</svg>
